<svg viewBox="0 0 39 32" fill="none" xmlns="http://www.w3.org/2000/svg">
<mask id="path-1-inside-1_204_117" fill="white">
<path fill-rule="evenodd" clip-rule="evenodd" d="M0 1L0.974342 0.841888C1.17708 1.45009 1.95717 2.59637 3.71943 3.79957C5.46743 4.99303 8.15228 6.22056 12.0981 7.00971C17.9735 8.1848 22.941 8.70889 26 8.90327V7H38.5V20.5H36.8863L33.8863 32H25.0495L25.588 31.2167C26.4995 29.8909 27.841 27.8287 28.9024 25.9537C29.4339 25.0147 29.8882 24.1349 30.1836 23.4238C30.3316 23.0674 30.4338 22.7674 30.4878 22.5317C30.5147 22.4143 30.5274 22.3224 30.5304 22.2538C30.5333 22.1858 30.5256 22.158 30.5256 22.158C30.3739 21.7027 30.0133 21.3236 29.5718 21.028C29.1609 20.7529 28.7221 20.5792 28.4354 20.5H26V19.0967C22.936 19.2914 17.9688 19.8161 12.0981 20.9903C8.15228 21.7794 5.46743 23.007 3.71943 24.2004C1.95717 25.4036 1.17708 26.5499 0.974342 27.1581L0 27V1Z"/>
</mask>
<path fill-rule="evenodd" clip-rule="evenodd" d="M0 1L0.974342 0.841888C1.17708 1.45009 1.95717 2.59637 3.71943 3.79957C5.46743 4.99303 8.15228 6.22056 12.0981 7.00971C17.9735 8.1848 22.941 8.70889 26 8.90327V7H38.5V20.5H36.8863L33.8863 32H25.0495L25.588 31.2167C26.4995 29.8909 27.841 27.8287 28.9024 25.9537C29.4339 25.0147 29.8882 24.1349 30.1836 23.4238C30.3316 23.0674 30.4338 22.7674 30.4878 22.5317C30.5147 22.4143 30.5274 22.3224 30.5304 22.2538C30.5333 22.1858 30.5256 22.158 30.5256 22.158C30.3739 21.7027 30.0133 21.3236 29.5718 21.028C29.1609 20.7529 28.7221 20.5792 28.4354 20.5H26V19.0967C22.936 19.2914 17.9688 19.8161 12.0981 20.9903C8.15228 21.7794 5.46743 23.007 3.71943 24.2004C1.95717 25.4036 1.17708 26.5499 0.974342 27.1581L0 27V1Z" fill="#F1E802"/>
<path d="M0.974342 0.841888L1.92302 0.525661L1.65398 -0.281483L0.814159 -0.145199L0.974342 0.841888ZM0 1L-0.160182 0.0129149L-1 0.149199V1H0ZM3.71943 3.79957L4.2833 2.9737L4.2833 2.9737L3.71943 3.79957ZM12.0981 7.00971L11.9019 7.99029L11.9019 7.99029L12.0981 7.00971ZM26 8.90327L25.9366 9.90126L27 9.96883V8.90327H26ZM26 7V6H25V7H26ZM38.5 7H39.5V6H38.5V7ZM38.5 20.5V21.5H39.5V20.5H38.5ZM36.8863 20.5V19.5H36.1137L35.9187 20.2476L36.8863 20.5ZM33.8863 32V33H34.6589L34.8539 32.2524L33.8863 32ZM25.0495 32L24.2254 31.4335L23.1485 33H25.0495V32ZM25.588 31.2167L24.7639 30.6502L24.7639 30.6502L25.588 31.2167ZM28.9024 25.9537L29.7726 26.4463L29.7726 26.4463L28.9024 25.9537ZM30.1836 23.4238L31.1071 23.8074L31.1071 23.8074L30.1836 23.4238ZM30.4878 22.5317L31.4626 22.7551L31.4626 22.7551L30.4878 22.5317ZM30.5304 22.2538L29.5313 22.2112L29.5313 22.2112L30.5304 22.2538ZM30.5256 22.158L31.4899 21.8931L31.4828 21.8673L31.4743 21.8418L30.5256 22.158ZM29.5718 21.028L30.1282 20.197L30.1282 20.197L29.5718 21.028ZM28.4354 20.5L28.7016 19.5361L28.5709 19.5H28.4354V20.5ZM26 20.5H25V21.5H26V20.5ZM26 19.0967H27V18.0312L25.9366 18.0988L26 19.0967ZM12.0981 20.9903L11.9019 20.0097L11.9019 20.0097L12.0981 20.9903ZM3.71943 24.2004L4.2833 25.0263L4.2833 25.0263L3.71943 24.2004ZM0.974342 27.1581L0.81416 28.1452L1.65398 28.2815L1.92302 27.4743L0.974342 27.1581ZM0 27H-1V27.8508L-0.160182 27.9871L0 27ZM0.814159 -0.145199L-0.160182 0.0129149L0.160182 1.98709L1.13452 1.82898L0.814159 -0.145199ZM4.2833 2.9737C2.62165 1.8392 2.03127 0.850384 1.92302 0.525661L0.0256583 1.15812C0.322886 2.0498 1.29269 3.35354 3.15557 4.62544L4.2833 2.9737ZM12.2942 6.02913C8.45683 5.26166 5.90228 4.07908 4.2833 2.9737L3.15557 4.62544C5.03257 5.90698 7.84772 7.17945 11.9019 7.99029L12.2942 6.02913ZM26.0634 7.90528C23.0449 7.71348 18.122 7.1947 12.2942 6.02913L11.9019 7.99029C17.825 9.17491 22.8371 9.70431 25.9366 9.90126L26.0634 7.90528ZM24.7639 30.6502L24.2254 31.4335L25.8735 32.5665L26.412 31.7833L24.7639 30.6502ZM28.0321 25.4611C26.9895 27.3029 25.6651 29.3394 24.7639 30.6502L26.412 31.7833C27.3338 30.4424 28.6924 28.3546 29.7726 26.4463L28.0321 25.4611ZM29.2601 23.0402C28.9875 23.6964 28.556 24.5356 28.0321 25.4611L29.7726 26.4463C30.3119 25.4937 30.7889 24.5734 31.1071 23.8074L29.2601 23.0402ZM29.5131 22.3082C29.4767 22.4671 29.3975 22.7094 29.2601 23.0402L31.1071 23.8074C31.2658 23.4254 31.3909 23.0676 31.4626 22.7551L29.5131 22.3082ZM29.5313 22.2112C29.5316 22.2041 29.5318 22.2086 29.5291 22.2267C29.5264 22.2442 29.5216 22.2711 29.5131 22.3082L31.4626 22.7551C31.4985 22.5984 31.5232 22.4436 31.5295 22.2964L29.5313 22.2112ZM30.5256 22.158C29.5613 22.4229 29.5613 22.4226 29.5612 22.4223C29.5611 22.4221 29.561 22.4218 29.561 22.4216C29.5609 22.4211 29.5607 22.4207 29.5606 22.4202C29.5604 22.4193 29.5601 22.4184 29.5599 22.4175C29.5594 22.4157 29.5589 22.4139 29.5585 22.4122C29.5575 22.4086 29.5566 22.4051 29.5557 22.4016C29.554 22.3947 29.5524 22.3879 29.5509 22.3812C29.5478 22.3679 29.5453 22.3553 29.5431 22.3433C29.5387 22.3193 29.5359 22.2981 29.5341 22.2801C29.5304 22.244 29.5309 22.2202 29.5313 22.2112L31.5295 22.2965C31.5327 22.2195 31.5308 22.1477 31.5241 22.0808C31.5207 22.0473 31.5162 22.0149 31.5105 21.9836C31.5076 21.9679 31.5045 21.9526 31.501 21.9375C31.4993 21.93 31.4975 21.9225 31.4957 21.9151C31.4947 21.9114 31.4938 21.9077 31.4928 21.904C31.4924 21.9022 31.4919 21.9004 31.4914 21.8986C31.4911 21.8977 31.4909 21.8967 31.4906 21.8958C31.4905 21.8954 31.4904 21.8949 31.4903 21.8945C31.4902 21.8943 31.4901 21.8939 31.4901 21.8938C31.49 21.8935 31.4899 21.8931 30.5256 22.158ZM29.0155 21.859C29.3563 22.0871 29.5215 22.3081 29.5769 22.4743L31.4743 21.8418C31.2262 21.0974 30.6704 20.56 30.1282 20.197L29.0155 21.859ZM28.1692 21.4639C28.367 21.5185 28.7051 21.6511 29.0155 21.859L30.1282 20.197C29.6167 19.8546 29.0772 19.6398 28.7016 19.5361L28.1692 21.4639ZM12.2942 21.9709C18.1173 20.8062 23.0399 20.2868 26.0634 20.0947L25.9366 18.0988C22.832 18.296 17.8203 18.826 11.9019 20.0097L12.2942 21.9709ZM4.2833 25.0263C5.90228 23.9209 8.45683 22.7383 12.2942 21.9709L11.9019 20.0097C7.84772 20.8206 5.03257 22.093 3.15557 23.3746L4.2833 25.0263ZM1.92302 27.4743C2.03127 27.1496 2.62165 26.1608 4.2833 25.0263L3.15557 23.3746C1.29269 24.6465 0.322886 25.9502 0.0256585 26.8419L1.92302 27.4743ZM-0.160182 27.9871L0.81416 28.1452L1.13452 26.171L0.160182 26.0129L-0.160182 27.9871ZM25 7V8.90327H27V7H25ZM38.5 6H26V8H38.5V6ZM39.5 20.5V7H37.5V20.5H39.5ZM36.8863 21.5H38.5V19.5H36.8863V21.5ZM34.8539 32.2524L37.8539 20.7524L35.9187 20.2476L32.9187 31.7476L34.8539 32.2524ZM25.0495 33H33.8863V31H25.0495V33ZM26 21.5H28.4354V19.5H26V21.5ZM25 19.0967V20.5H27V19.0967H25ZM-1 1V27H1V1H-1Z" fill="black" mask="url(#path-1-inside-1_204_117)"/>
</svg>
