<?xml version="1.0" standalone="no"?>
<!DOCTYPE svg PUBLIC "-//W3C//DTD SVG 20010904//EN"
 "http://www.w3.org/TR/2001/REC-SVG-20010904/DTD/svg10.dtd">
<svg version="1.0" xmlns="http://www.w3.org/2000/svg"
 width="176.000000pt" height="176.000000pt" viewBox="0 0 176.000000 176.000000"
 preserveAspectRatio="xMidYMid meet">
<metadata>
Created by potrace 1.14, written by Peter Selinger 2001-2017
</metadata>
<g transform="translate(0.000000,176.000000) scale(0.100000,-0.100000)"
fill="#000000" stroke="none">
<path d="M733 1749 c-62 -11 -193 -54 -248 -81 -56 -29 -140 -88 -203 -142
-30 -25 -60 -46 -68 -46 -8 0 -14 -8 -14 -18 0 -10 -24 -55 -54 -101 -106
-160 -147 -308 -141 -510 6 -234 88 -425 254 -592 162 -162 359 -248 586 -254
228 -7 401 49 580 186 47 36 73 49 98 49 32 0 34 2 46 53 7 28 28 76 47 105
47 72 87 162 115 257 25 88 29 212 14 458 l-8 127 -28 0 c-19 0 -30 6 -34 20
-14 43 -112 179 -174 241 -172 170 -373 254 -621 256 -52 1 -118 -3 -147 -8z"/>
</g>
</svg>
