<svg viewBox="0 0 44 44" fill="none" xmlns="http://www.w3.org/2000/svg">
<circle cx="22" cy="22" r="22" fill="yellow"/>
<mask id="path-2-inside-1_0_1" fill="white">
<path fill-rule="evenodd" clip-rule="evenodd" d="M5 7L5.97434 6.84189C6.17708 7.45009 6.95717 8.59637 8.71943 9.79957C10.4674 10.993 13.1523 12.2206 17.0981 13.0097C22.9735 14.1848 27.941 14.7089 31 14.9033V13H43.5V26.5H41.8863L38.8863 38H30.0495L30.588 37.2167C31.4995 35.8909 32.841 33.8287 33.9024 31.9537C34.4339 31.0147 34.8882 30.1349 35.1836 29.4238C35.3316 29.0674 35.4338 28.7674 35.4878 28.5317C35.5147 28.4143 35.5274 28.3224 35.5304 28.2538C35.5333 28.1858 35.5256 28.158 35.5256 28.158C35.3739 27.7027 35.0133 27.3236 34.5718 27.028C34.1609 26.7529 33.7221 26.5792 33.4354 26.5H31V25.0967C27.936 25.2914 22.9688 25.8161 17.0981 26.9903C13.1523 27.7794 10.4674 29.007 8.71943 30.2004C6.95717 31.4036 6.17708 32.5499 5.97434 33.1581L5 33V7Z"/>
</mask>
<path fill-rule="evenodd" clip-rule="evenodd" d="M5 7L5.97434 6.84189C6.17708 7.45009 6.95717 8.59637 8.71943 9.79957C10.4674 10.993 13.1523 12.2206 17.0981 13.0097C22.9735 14.1848 27.941 14.7089 31 14.9033V13H43.5V26.5H41.8863L38.8863 38H30.0495L30.588 37.2167C31.4995 35.8909 32.841 33.8287 33.9024 31.9537C34.4339 31.0147 34.8882 30.1349 35.1836 29.4238C35.3316 29.0674 35.4338 28.7674 35.4878 28.5317C35.5147 28.4143 35.5274 28.3224 35.5304 28.2538C35.5333 28.1858 35.5256 28.158 35.5256 28.158C35.3739 27.7027 35.0133 27.3236 34.5718 27.028C34.1609 26.7529 33.7221 26.5792 33.4354 26.5H31V25.0967C27.936 25.2914 22.9688 25.8161 17.0981 26.9903C13.1523 27.7794 10.4674 29.007 8.71943 30.2004C6.95717 31.4036 6.17708 32.5499 5.97434 33.1581L5 33V7Z" fill="black"/>
<path d="M5.97434 6.84189L6.92302 6.52566L6.65398 5.71852L5.81416 5.8548L5.97434 6.84189ZM5 7L4.83982 6.01291L4 6.1492V7H5ZM8.71943 9.79957L9.2833 8.9737L9.2833 8.9737L8.71943 9.79957ZM17.0981 13.0097L16.9019 13.9903L16.9019 13.9903L17.0981 13.0097ZM31 14.9033L30.9366 15.9013L32 15.9688V14.9033H31ZM31 13V12H30V13H31ZM43.5 13H44.5V12H43.5V13ZM43.5 26.5V27.5H44.5V26.5H43.5ZM41.8863 26.5V25.5H41.1137L40.9187 26.2476L41.8863 26.5ZM38.8863 38V39H39.6589L39.8539 38.2524L38.8863 38ZM30.0495 38L29.2254 37.4335L28.1485 39H30.0495V38ZM30.588 37.2167L29.7639 36.6502L29.7639 36.6502L30.588 37.2167ZM33.9024 31.9537L34.7726 32.4463L34.7726 32.4463L33.9024 31.9537ZM35.1836 29.4238L36.1071 29.8074L36.1071 29.8074L35.1836 29.4238ZM35.4878 28.5317L36.4626 28.7551L36.4626 28.7551L35.4878 28.5317ZM35.5304 28.2538L34.5313 28.2112L34.5313 28.2112L35.5304 28.2538ZM35.5256 28.158L36.4899 27.8931L36.4828 27.8673L36.4743 27.8418L35.5256 28.158ZM34.5718 27.028L35.1282 26.197L35.1282 26.197L34.5718 27.028ZM33.4354 26.5L33.7016 25.5361L33.5709 25.5H33.4354V26.5ZM31 26.5H30V27.5H31V26.5ZM31 25.0967H32V24.0312L30.9366 24.0988L31 25.0967ZM17.0981 26.9903L16.9019 26.0097L16.9019 26.0097L17.0981 26.9903ZM8.71943 30.2004L9.2833 31.0263L9.2833 31.0263L8.71943 30.2004ZM5.97434 33.1581L5.81416 34.1452L6.65398 34.2815L6.92302 33.4743L5.97434 33.1581ZM5 33H4V33.8508L4.83982 33.9871L5 33ZM5.81416 5.8548L4.83982 6.01291L5.16018 7.98709L6.13452 7.82898L5.81416 5.8548ZM9.2833 8.9737C7.62165 7.8392 7.03127 6.85038 6.92302 6.52566L5.02566 7.15812C5.32289 8.0498 6.29269 9.35354 8.15557 10.6254L9.2833 8.9737ZM17.2942 12.0291C13.4568 11.2617 10.9023 10.0791 9.2833 8.9737L8.15557 10.6254C10.0326 11.907 12.8477 13.1794 16.9019 13.9903L17.2942 12.0291ZM31.0634 13.9053C28.0449 13.7135 23.122 13.1947 17.2942 12.0291L16.9019 13.9903C22.825 15.1749 27.8371 15.7043 30.9366 15.9013L31.0634 13.9053ZM29.7639 36.6502L29.2254 37.4335L30.8735 38.5665L31.412 37.7833L29.7639 36.6502ZM33.0321 31.4611C31.9895 33.3029 30.6651 35.3394 29.7639 36.6502L31.412 37.7833C32.3338 36.4424 33.6924 34.3546 34.7726 32.4463L33.0321 31.4611ZM34.2601 29.0402C33.9875 29.6964 33.556 30.5356 33.0321 31.4611L34.7726 32.4463C35.3119 31.4937 35.7889 30.5734 36.1071 29.8074L34.2601 29.0402ZM34.5131 28.3082C34.4767 28.4671 34.3975 28.7094 34.2601 29.0402L36.1071 29.8074C36.2658 29.4254 36.3909 29.0676 36.4626 28.7551L34.5131 28.3082ZM34.5313 28.2112C34.5316 28.2041 34.5318 28.2086 34.5291 28.2267C34.5264 28.2442 34.5216 28.2711 34.5131 28.3082L36.4626 28.7551C36.4985 28.5984 36.5232 28.4436 36.5295 28.2964L34.5313 28.2112ZM35.5256 28.158C34.5613 28.4229 34.5613 28.4226 34.5612 28.4223C34.5611 28.4221 34.561 28.4218 34.561 28.4216C34.5609 28.4211 34.5607 28.4207 34.5606 28.4202C34.5604 28.4193 34.5601 28.4184 34.5599 28.4175C34.5594 28.4157 34.5589 28.4139 34.5585 28.4122C34.5575 28.4086 34.5566 28.4051 34.5557 28.4016C34.554 28.3947 34.5524 28.3879 34.5509 28.3812C34.5478 28.3679 34.5453 28.3553 34.5431 28.3433C34.5387 28.3193 34.5359 28.2981 34.5341 28.2801C34.5304 28.244 34.5309 28.2202 34.5313 28.2112L36.5295 28.2965C36.5327 28.2195 36.5308 28.1477 36.5241 28.0808C36.5207 28.0473 36.5162 28.0149 36.5105 27.9836C36.5076 27.9679 36.5045 27.9526 36.501 27.9375C36.4993 27.93 36.4975 27.9225 36.4957 27.9151C36.4947 27.9114 36.4938 27.9077 36.4928 27.904C36.4924 27.9022 36.4919 27.9004 36.4914 27.8986C36.4911 27.8977 36.4909 27.8967 36.4906 27.8958C36.4905 27.8954 36.4904 27.8949 36.4903 27.8945C36.4902 27.8943 36.4901 27.8939 36.4901 27.8938C36.49 27.8935 36.4899 27.8931 35.5256 28.158ZM34.0155 27.859C34.3563 28.0871 34.5215 28.3081 34.5769 28.4743L36.4743 27.8418C36.2262 27.0974 35.6704 26.56 35.1282 26.197L34.0155 27.859ZM33.1692 27.4639C33.367 27.5185 33.7051 27.6511 34.0155 27.859L35.1282 26.197C34.6167 25.8546 34.0772 25.6398 33.7016 25.5361L33.1692 27.4639ZM17.2942 27.9709C23.1173 26.8062 28.0399 26.2868 31.0634 26.0947L30.9366 24.0988C27.832 24.296 22.8203 24.826 16.9019 26.0097L17.2942 27.9709ZM9.2833 31.0263C10.9023 29.9209 13.4568 28.7383 17.2942 27.9709L16.9019 26.0097C12.8477 26.8206 10.0326 28.093 8.15557 29.3746L9.2833 31.0263ZM6.92302 33.4743C7.03127 33.1496 7.62165 32.1608 9.2833 31.0263L8.15557 29.3746C6.29269 30.6465 5.32289 31.9502 5.02566 32.8419L6.92302 33.4743ZM4.83982 33.9871L5.81416 34.1452L6.13452 32.171L5.16018 32.0129L4.83982 33.9871ZM30 13V14.9033H32V13H30ZM43.5 12H31V14H43.5V12ZM44.5 26.5V13H42.5V26.5H44.5ZM41.8863 27.5H43.5V25.5H41.8863V27.5ZM39.8539 38.2524L42.8539 26.7524L40.9187 26.2476L37.9187 37.7476L39.8539 38.2524ZM30.0495 39H38.8863V37H30.0495V39ZM31 27.5H33.4354V25.5H31V27.5ZM30 25.0967V26.5H32V25.0967H30ZM4 7V33H6V7H4Z" fill="black" mask="url(#path-2-inside-1_0_1)"/>
</svg>
